<svg width="343" height="48" viewBox="0 0 343 48" fill="none" xmlns="http://www.w3.org/2000/svg">
<path d="M21 26.6671H26.1848L29.0652 12.337H23.8804L21 26.6671ZM24.9606 11.0408H31.0815L32.0897 6H25.9688L24.9606 11.0408ZM28.2011 30.6997H33.3859L36.5544 15.2174H40.4429L41.019 12.337H37.2025L37.3465 11.6889C37.5625 10.4647 37.9946 9.09647 39.9389 9.09647C41.091 9.09647 42.1712 9.16848 43.2514 9.67256L43.8275 6.6481C42.6033 6.21603 41.3071 6 40.0829 6C35.9063 6 33.0258 8.44837 31.9457 12.337H30.1454L29.5693 15.2174H31.3696L28.2011 30.6997Z" fill="white"/>
<path d="M44.6196 26.9552C50.7405 26.9552 54.9892 21.4103 54.9892 16.8737C54.9892 13.4891 51.8927 12.0489 48.8682 12.0489C42.1712 12.0489 38.4987 18.0258 38.4987 22.1304C38.4987 25.515 41.6671 26.9552 44.6196 26.9552ZM61.0381 26.9552C67.159 26.9552 71.4076 21.4103 71.4076 16.8737C71.4076 13.4891 68.2392 12.0489 65.2147 12.0489C58.5177 12.0489 54.8451 18.0258 54.8451 22.1304C54.8451 25.515 58.0856 26.9552 61.0381 26.9552V26.9552ZM79.8329 26.6671H84.9457L89.1223 6.28806H83.9375L82.7133 12.337L80.553 12.1209C75.5123 12.1209 70.9036 18.6019 70.9036 23.2106C70.9036 25.0829 72.1277 26.9552 74.2161 26.9552C77.1685 26.9552 79.2568 25.515 80.121 24.0747H80.409L79.8329 26.6671ZM63.8465 37.3968C59.822 40.731 54.6532 42.3591 49.4443 41.9334C42.6033 41.5014 37.7065 36.2446 36.8424 30.6997H37.1304C38.7147 34.1563 42.5313 37.3968 47.212 37.9008C51.9647 38.4769 57.6536 36.3166 60.75 33.3642L57.2935 30.6997H67.7351L65.4307 41.7894L63.9185 37.4688L63.8465 37.3968Z" fill="white"/>
<path d="M123.094 27.3438H120.727L120.117 30.2578H118.422L119.047 27.3438H116.469L115.867 30.2578H114.172L114.789 27.3438H113.578V25.6484H115.141L115.594 23.5234H113.578V21.8203H115.945L116.555 18.9141H118.234L117.625 21.8203H120.203L120.805 18.9141H122.508L121.883 21.8203H123.094V23.5234H121.531L121.078 25.6484H123.094V27.3438ZM119.852 23.5234H117.273L116.82 25.6484H119.398L119.852 23.5234ZM134.922 26.9297C134.922 27.862 134.602 28.6068 133.961 29.1641C133.326 29.7214 132.435 30 131.289 30H125.031V19.1719H130.266C130.943 19.1719 131.531 19.237 132.031 19.3672C132.536 19.4974 132.943 19.6771 133.25 19.9062C133.557 20.1302 133.786 20.3958 133.938 20.7031C134.089 21.0104 134.164 21.3464 134.164 21.7109C134.164 22.1068 134.086 22.474 133.93 22.8125C133.773 23.1458 133.578 23.4219 133.344 23.6406C133.115 23.8542 132.883 24.0052 132.648 24.0938C133.388 24.3854 133.951 24.7552 134.336 25.2031C134.727 25.6458 134.922 26.2214 134.922 26.9297ZM131.109 22.2891C131.109 21.7682 130.938 21.4219 130.594 21.25C130.25 21.0781 129.714 20.9922 128.984 20.9922H128.297V23.5859H129C129.745 23.5859 130.281 23.5 130.609 23.3281C130.943 23.1562 131.109 22.8099 131.109 22.2891ZM131.641 26.7969C131.641 25.8698 130.969 25.4062 129.625 25.4062H128.297V28.1797H129.625C130.969 28.1797 131.641 27.7188 131.641 26.7969ZM143.547 22.4766L142.508 25.2969C142.081 24.8906 141.648 24.6875 141.211 24.6875C140.815 24.6875 140.471 24.8229 140.18 25.0938C139.893 25.3594 139.617 25.8542 139.352 26.5781V30H136.539V22.0469H139.352V23.9688C139.529 23.4948 139.841 23.0339 140.289 22.5859C140.737 22.1328 141.263 21.9062 141.867 21.9062C142.185 21.9062 142.461 21.9531 142.695 22.0469C142.935 22.1406 143.219 22.2839 143.547 22.4766ZM152.461 29.6016C152.049 29.763 151.669 29.8932 151.32 29.9922C150.971 30.0911 150.552 30.1406 150.062 30.1406C149.599 30.1406 149.276 30.0599 149.094 29.8984C148.911 29.7318 148.781 29.5312 148.703 29.2969C148.401 29.5417 148.065 29.7448 147.695 29.9062C147.326 30.0625 146.841 30.1406 146.242 30.1406C145.664 30.1406 145.195 30.0417 144.836 29.8438C144.482 29.6406 144.232 29.388 144.086 29.0859C143.945 28.7786 143.875 28.4635 143.875 28.1406C143.875 27.651 143.997 27.2474 144.242 26.9297C144.492 26.6068 144.826 26.3438 145.242 26.1406C145.659 25.9375 146.211 25.7266 146.898 25.5078C147.289 25.3828 147.583 25.2891 147.781 25.2266C147.984 25.1589 148.135 25.1068 148.234 25.0703C148.333 25.0339 148.438 24.987 148.547 24.9297C148.547 24.5443 148.469 24.2422 148.312 24.0234C148.156 23.8047 147.818 23.6953 147.297 23.6953C146.682 23.6953 146.112 23.8307 145.586 24.1016C145.06 24.3724 144.578 24.7214 144.141 25.1484V22.9922C144.49 22.7422 144.867 22.5391 145.273 22.3828C145.68 22.2214 146.104 22.1016 146.547 22.0234C146.99 21.9453 147.438 21.9062 147.891 21.9062C149.042 21.9062 149.906 22.1302 150.484 22.5781C151.068 23.0208 151.359 23.6328 151.359 24.4141V27.4844C151.359 27.776 151.385 27.9948 151.438 28.1406C151.495 28.2812 151.596 28.3516 151.742 28.3516C151.919 28.3516 152.159 28.276 152.461 28.125V29.6016ZM148.547 28.0781V26.1953C147.88 26.4661 147.393 26.7109 147.086 26.9297C146.779 27.1432 146.625 27.4349 146.625 27.8047C146.625 28.0703 146.701 28.2734 146.852 28.4141C147.008 28.5547 147.188 28.625 147.391 28.625C147.583 28.625 147.773 28.5729 147.961 28.4688C148.154 28.3594 148.349 28.2292 148.547 28.0781ZM159.57 27.6797C159.57 28.4089 159.302 29.0026 158.766 29.4609C158.234 29.9141 157.443 30.1406 156.391 30.1406C155.802 30.1406 155.279 30.0885 154.82 29.9844C154.362 29.875 153.862 29.7214 153.32 29.5234V27.5234C153.794 27.7943 154.206 28 154.555 28.1406C154.904 28.2812 155.286 28.3516 155.703 28.3516C156.406 28.3516 156.758 28.1589 156.758 27.7734C156.758 27.6432 156.706 27.5286 156.602 27.4297C156.503 27.3255 156.326 27.2109 156.07 27.0859C155.82 26.9557 155.484 26.8021 155.062 26.625C154.542 26.3958 154.099 26.0885 153.734 25.7031C153.37 25.3177 153.188 24.8464 153.188 24.2891C153.188 23.8932 153.307 23.513 153.547 23.1484C153.792 22.7839 154.159 22.487 154.648 22.2578C155.138 22.0234 155.729 21.9062 156.422 21.9062C156.589 21.9062 156.799 21.9193 157.055 21.9453C157.315 21.9661 157.641 22.026 158.031 22.125C158.427 22.224 158.802 22.3646 159.156 22.5469V24.4922C158.99 24.3932 158.849 24.3099 158.734 24.2422C158.625 24.1745 158.477 24.099 158.289 24.0156C158.102 23.9323 157.88 23.8594 157.625 23.7969C157.375 23.7292 157.117 23.6953 156.852 23.6953C156.529 23.6953 156.307 23.7578 156.188 23.8828C156.068 24.0078 156.008 24.1328 156.008 24.2578C156.008 24.388 156.07 24.5104 156.195 24.625C156.32 24.7344 156.599 24.8724 157.031 25.0391C157.656 25.2786 158.156 25.526 158.531 25.7812C158.906 26.0312 159.172 26.3073 159.328 26.6094C159.49 26.9115 159.57 27.2682 159.57 27.6797ZM163.836 20.2109C163.836 20.5391 163.719 20.8177 163.484 21.0469C163.25 21.276 162.971 21.3906 162.648 21.3906C162.43 21.3906 162.229 21.3385 162.047 21.2344C161.87 21.1302 161.729 20.9896 161.625 20.8125C161.521 20.6302 161.469 20.4297 161.469 20.2109C161.469 19.888 161.583 19.6094 161.812 19.375C162.042 19.1406 162.32 19.0234 162.648 19.0234C162.971 19.0234 163.25 19.1406 163.484 19.375C163.719 19.6094 163.836 19.888 163.836 20.2109ZM164.062 30H161.242V22.0469H164.062V30ZM168.969 30H166.148V19.1719H168.969V30ZM179.07 26.7031H173.469C173.578 27.1875 173.846 27.5833 174.273 27.8906C174.701 28.1979 175.185 28.3516 175.727 28.3516C176.674 28.3516 177.721 28.0859 178.867 27.5547V29.2969C178.456 29.5104 177.956 29.7057 177.367 29.8828C176.784 30.0547 176.039 30.1406 175.133 30.1406C174.154 30.1406 173.32 29.9583 172.633 29.5938C171.945 29.2292 171.43 28.7344 171.086 28.1094C170.747 27.4844 170.578 26.776 170.578 25.9844C170.578 25.2031 170.747 24.5052 171.086 23.8906C171.43 23.2708 171.945 22.7865 172.633 22.4375C173.32 22.0833 174.154 21.9062 175.133 21.9062C175.779 21.9062 176.401 22.0469 177 22.3281C177.604 22.6042 178.099 23.0599 178.484 23.6953C178.875 24.3255 179.07 25.1406 179.07 26.1406V26.7031ZM176.43 25.3125C176.43 24.8021 176.302 24.3958 176.047 24.0938C175.797 23.7865 175.435 23.6328 174.961 23.6328C174.492 23.6328 174.112 23.7891 173.82 24.1016C173.534 24.4089 173.391 24.8125 173.391 25.3125H176.43ZM183.195 20.2109C183.195 20.5391 183.078 20.8177 182.844 21.0469C182.609 21.276 182.331 21.3906 182.008 21.3906C181.789 21.3906 181.589 21.3385 181.406 21.2344C181.229 21.1302 181.089 20.9896 180.984 20.8125C180.88 20.6302 180.828 20.4297 180.828 20.2109C180.828 19.888 180.943 19.6094 181.172 19.375C181.401 19.1406 181.68 19.0234 182.008 19.0234C182.331 19.0234 182.609 19.1406 182.844 19.375C183.078 19.6094 183.195 19.888 183.195 20.2109ZM183.422 30H180.602V22.0469H183.422V30ZM192.359 22.4766L191.32 25.2969C190.893 24.8906 190.461 24.6875 190.023 24.6875C189.628 24.6875 189.284 24.8229 188.992 25.0938C188.706 25.3594 188.43 25.8542 188.164 26.5781V30H185.352V22.0469H188.164V23.9688C188.341 23.4948 188.654 23.0339 189.102 22.5859C189.549 22.1328 190.076 21.9062 190.68 21.9062C190.997 21.9062 191.273 21.9531 191.508 22.0469C191.747 22.1406 192.031 22.2839 192.359 22.4766ZM201.352 26.0156C201.352 26.8073 201.18 27.513 200.836 28.1328C200.492 28.7526 199.977 29.2422 199.289 29.6016C198.607 29.9609 197.773 30.1406 196.789 30.1406C195.805 30.1406 194.969 29.9609 194.281 29.6016C193.599 29.2422 193.086 28.7526 192.742 28.1328C192.404 27.513 192.234 26.8073 192.234 26.0156C192.234 25.4167 192.328 24.8724 192.516 24.3828C192.708 23.8932 192.997 23.4609 193.383 23.0859C193.773 22.7057 194.253 22.4141 194.82 22.2109C195.388 22.0078 196.044 21.9062 196.789 21.9062C197.539 21.9062 198.201 22.0104 198.773 22.2188C199.352 22.4219 199.828 22.7083 200.203 23.0781C200.583 23.4479 200.87 23.8802 201.062 24.375C201.255 24.8698 201.352 25.4167 201.352 26.0156ZM198.391 26.0156C198.391 25.3854 198.253 24.8932 197.977 24.5391C197.706 24.1797 197.31 24 196.789 24C196.273 24 195.878 24.1797 195.602 24.5391C195.331 24.8932 195.195 25.3854 195.195 26.0156C195.195 26.6406 195.333 27.1354 195.609 27.5C195.885 27.8646 196.279 28.0469 196.789 28.0469C197.31 28.0469 197.706 27.8672 197.977 27.5078C198.253 27.1432 198.391 26.6458 198.391 26.0156ZM215.172 30H211.828L210.945 27.8047H206.242L205.344 30H202L206.789 19.1719H210.398L215.172 30ZM210.195 25.9219L208.609 21.9688L207.008 25.9219H210.195ZM230.32 30H227.508V25.7578C227.508 25.1953 227.414 24.776 227.227 24.5C227.044 24.2188 226.753 24.0781 226.352 24.0781C225.961 24.0781 225.641 24.1979 225.391 24.4375C225.141 24.6719 224.891 24.9688 224.641 25.3281V30H221.828V25.7578C221.828 25.2214 221.742 24.8073 221.57 24.5156C221.398 24.224 221.094 24.0781 220.656 24.0781C220.448 24.0781 220.255 24.1198 220.078 24.2031C219.906 24.2865 219.766 24.3802 219.656 24.4844C219.547 24.5885 219.414 24.7422 219.258 24.9453C219.102 25.1484 219.003 25.276 218.961 25.3281V30H216.148V22.0469H218.961V23.1875C219.383 22.7396 219.812 22.4141 220.25 22.2109C220.688 22.0078 221.193 21.9062 221.766 21.9062C222.036 21.9062 222.294 21.9323 222.539 21.9844C222.784 22.0312 223.023 22.1146 223.258 22.2344C223.497 22.3542 223.714 22.5182 223.906 22.7266C224.099 22.9349 224.253 23.1771 224.367 23.4531C224.82 22.9427 225.289 22.5573 225.773 22.2969C226.263 22.0365 226.826 21.9062 227.461 21.9062C228.096 21.9062 228.628 22.0339 229.055 22.2891C229.487 22.5443 229.805 22.9141 230.008 23.3984C230.216 23.8776 230.32 24.4609 230.32 25.1484V30ZM240.242 29.6016C239.831 29.763 239.451 29.8932 239.102 29.9922C238.753 30.0911 238.333 30.1406 237.844 30.1406C237.38 30.1406 237.057 30.0599 236.875 29.8984C236.693 29.7318 236.562 29.5312 236.484 29.2969C236.182 29.5417 235.846 29.7448 235.477 29.9062C235.107 30.0625 234.622 30.1406 234.023 30.1406C233.445 30.1406 232.977 30.0417 232.617 29.8438C232.263 29.6406 232.013 29.388 231.867 29.0859C231.727 28.7786 231.656 28.4635 231.656 28.1406C231.656 27.651 231.779 27.2474 232.023 26.9297C232.273 26.6068 232.607 26.3438 233.023 26.1406C233.44 25.9375 233.992 25.7266 234.68 25.5078C235.07 25.3828 235.365 25.2891 235.562 25.2266C235.766 25.1589 235.917 25.1068 236.016 25.0703C236.115 25.0339 236.219 24.987 236.328 24.9297C236.328 24.5443 236.25 24.2422 236.094 24.0234C235.938 23.8047 235.599 23.6953 235.078 23.6953C234.464 23.6953 233.893 23.8307 233.367 24.1016C232.841 24.3724 232.359 24.7214 231.922 25.1484V22.9922C232.271 22.7422 232.648 22.5391 233.055 22.3828C233.461 22.2214 233.885 22.1016 234.328 22.0234C234.771 21.9453 235.219 21.9062 235.672 21.9062C236.823 21.9062 237.688 22.1302 238.266 22.5781C238.849 23.0208 239.141 23.6328 239.141 24.4141V27.4844C239.141 27.776 239.167 27.9948 239.219 28.1406C239.276 28.2812 239.378 28.3516 239.523 28.3516C239.701 28.3516 239.94 28.276 240.242 28.125V29.6016ZM236.328 28.0781V26.1953C235.661 26.4661 235.174 26.7109 234.867 26.9297C234.56 27.1432 234.406 27.4349 234.406 27.8047C234.406 28.0703 234.482 28.2734 234.633 28.4141C234.789 28.5547 234.969 28.625 235.172 28.625C235.365 28.625 235.555 28.5729 235.742 28.4688C235.935 28.3594 236.13 28.2292 236.328 28.0781ZM249.758 30H241.594V19.1719H249.625V21.3438H244.859V23.3281H249.406V25.5078H244.859V27.8203H249.758V30ZM257.711 27.6797C257.711 28.4089 257.443 29.0026 256.906 29.4609C256.375 29.9141 255.583 30.1406 254.531 30.1406C253.943 30.1406 253.419 30.0885 252.961 29.9844C252.503 29.875 252.003 29.7214 251.461 29.5234V27.5234C251.935 27.7943 252.346 28 252.695 28.1406C253.044 28.2812 253.427 28.3516 253.844 28.3516C254.547 28.3516 254.898 28.1589 254.898 27.7734C254.898 27.6432 254.846 27.5286 254.742 27.4297C254.643 27.3255 254.466 27.2109 254.211 27.0859C253.961 26.9557 253.625 26.8021 253.203 26.625C252.682 26.3958 252.24 26.0885 251.875 25.7031C251.51 25.3177 251.328 24.8464 251.328 24.2891C251.328 23.8932 251.448 23.513 251.688 23.1484C251.932 22.7839 252.299 22.487 252.789 22.2578C253.279 22.0234 253.87 21.9062 254.562 21.9062C254.729 21.9062 254.94 21.9193 255.195 21.9453C255.456 21.9661 255.781 22.026 256.172 22.125C256.568 22.224 256.943 22.3646 257.297 22.5469V24.4922C257.13 24.3932 256.99 24.3099 256.875 24.2422C256.766 24.1745 256.617 24.099 256.43 24.0156C256.242 23.9323 256.021 23.8594 255.766 23.7969C255.516 23.7292 255.258 23.6953 254.992 23.6953C254.669 23.6953 254.448 23.7578 254.328 23.8828C254.208 24.0078 254.148 24.1328 254.148 24.2578C254.148 24.388 254.211 24.5104 254.336 24.625C254.461 24.7344 254.74 24.8724 255.172 25.0391C255.797 25.2786 256.297 25.526 256.672 25.7812C257.047 26.0312 257.312 26.3073 257.469 26.6094C257.63 26.9115 257.711 27.2682 257.711 27.6797ZM265.516 29.5391C265.224 29.6797 264.82 29.8151 264.305 29.9453C263.794 30.0755 263.305 30.1406 262.836 30.1406C260.81 30.1406 259.797 29.151 259.797 27.1719V24H258.523V23.5078L262.297 19.6641H262.617V22.0469H265.305V24H262.617V26.5469C262.617 26.8438 262.635 27.0833 262.672 27.2656C262.708 27.4479 262.81 27.6016 262.977 27.7266C263.148 27.8464 263.406 27.9062 263.75 27.9062C264.198 27.9062 264.786 27.7188 265.516 27.3438V29.5391ZM275.539 26.0156C275.539 26.8073 275.367 27.513 275.023 28.1328C274.68 28.7526 274.164 29.2422 273.477 29.6016C272.794 29.9609 271.961 30.1406 270.977 30.1406C269.992 30.1406 269.156 29.9609 268.469 29.6016C267.786 29.2422 267.273 28.7526 266.93 28.1328C266.591 27.513 266.422 26.8073 266.422 26.0156C266.422 25.4167 266.516 24.8724 266.703 24.3828C266.896 23.8932 267.185 23.4609 267.57 23.0859C267.961 22.7057 268.44 22.4141 269.008 22.2109C269.576 22.0078 270.232 21.9062 270.977 21.9062C271.727 21.9062 272.388 22.0104 272.961 22.2188C273.539 22.4219 274.016 22.7083 274.391 23.0781C274.771 23.4479 275.057 23.8802 275.25 24.375C275.443 24.8698 275.539 25.4167 275.539 26.0156ZM272.578 26.0156C272.578 25.3854 272.44 24.8932 272.164 24.5391C271.893 24.1797 271.497 24 270.977 24C270.461 24 270.065 24.1797 269.789 24.5391C269.518 24.8932 269.383 25.3854 269.383 26.0156C269.383 26.6406 269.521 27.1354 269.797 27.5C270.073 27.8646 270.466 28.0469 270.977 28.0469C271.497 28.0469 271.893 27.8672 272.164 27.5078C272.44 27.1432 272.578 26.6458 272.578 26.0156ZM285.391 30H282.57V28.8672C282.174 29.2943 281.758 29.6146 281.32 29.8281C280.888 30.0365 280.367 30.1406 279.758 30.1406C278.555 30.1406 277.776 29.7917 277.422 29.0938C277.068 28.3906 276.891 27.599 276.891 26.7188V22.0469H279.711V26.3438C279.711 26.776 279.781 27.1562 279.922 27.4844C280.068 27.8073 280.38 27.9688 280.859 27.9688C281.271 27.9688 281.596 27.8516 281.836 27.6172C282.076 27.3828 282.32 27.0833 282.57 26.7188V22.0469H285.391V30ZM294.188 22.4766L293.148 25.2969C292.721 24.8906 292.289 24.6875 291.852 24.6875C291.456 24.6875 291.112 24.8229 290.82 25.0938C290.534 25.3594 290.258 25.8542 289.992 26.5781V30H287.18V22.0469H289.992V23.9688C290.169 23.4948 290.482 23.0339 290.93 22.5859C291.378 22.1328 291.904 21.9062 292.508 21.9062C292.826 21.9062 293.102 21.9531 293.336 22.0469C293.576 22.1406 293.859 22.2839 294.188 22.4766ZM303.102 29.6016C302.69 29.763 302.31 29.8932 301.961 29.9922C301.612 30.0911 301.193 30.1406 300.703 30.1406C300.24 30.1406 299.917 30.0599 299.734 29.8984C299.552 29.7318 299.422 29.5312 299.344 29.2969C299.042 29.5417 298.706 29.7448 298.336 29.9062C297.966 30.0625 297.482 30.1406 296.883 30.1406C296.305 30.1406 295.836 30.0417 295.477 29.8438C295.122 29.6406 294.872 29.388 294.727 29.0859C294.586 28.7786 294.516 28.4635 294.516 28.1406C294.516 27.651 294.638 27.2474 294.883 26.9297C295.133 26.6068 295.466 26.3438 295.883 26.1406C296.299 25.9375 296.852 25.7266 297.539 25.5078C297.93 25.3828 298.224 25.2891 298.422 25.2266C298.625 25.1589 298.776 25.1068 298.875 25.0703C298.974 25.0339 299.078 24.987 299.188 24.9297C299.188 24.5443 299.109 24.2422 298.953 24.0234C298.797 23.8047 298.458 23.6953 297.938 23.6953C297.323 23.6953 296.753 23.8307 296.227 24.1016C295.701 24.3724 295.219 24.7214 294.781 25.1484V22.9922C295.13 22.7422 295.508 22.5391 295.914 22.3828C296.32 22.2214 296.745 22.1016 297.188 22.0234C297.63 21.9453 298.078 21.9062 298.531 21.9062C299.682 21.9062 300.547 22.1302 301.125 22.5781C301.708 23.0208 302 23.6328 302 24.4141V27.4844C302 27.776 302.026 27.9948 302.078 28.1406C302.135 28.2812 302.237 28.3516 302.383 28.3516C302.56 28.3516 302.799 28.276 303.102 28.125V29.6016ZM299.188 28.0781V26.1953C298.521 26.4661 298.034 26.7109 297.727 26.9297C297.419 27.1432 297.266 27.4349 297.266 27.8047C297.266 28.0703 297.341 28.2734 297.492 28.4141C297.648 28.5547 297.828 28.625 298.031 28.625C298.224 28.625 298.414 28.5729 298.602 28.4688C298.794 28.3594 298.99 28.2292 299.188 28.0781ZM312.406 30H309.586V29.2812C309.289 29.5312 308.974 29.737 308.641 29.8984C308.312 30.0599 307.857 30.1406 307.273 30.1406C306.695 30.1406 306.128 29.9974 305.57 29.7109C305.013 29.4245 304.555 28.9792 304.195 28.375C303.836 27.7656 303.656 27 303.656 26.0781C303.656 25.3542 303.792 24.6771 304.062 24.0469C304.333 23.4115 304.758 22.8958 305.336 22.5C305.914 22.1042 306.622 21.9062 307.461 21.9062C307.982 21.9062 308.404 21.9635 308.727 22.0781C309.049 22.1927 309.336 22.3385 309.586 22.5156V19.1719H312.406V30ZM309.586 27.4688V24.4297C309.258 24.2474 309 24.1172 308.812 24.0391C308.63 23.9609 308.414 23.9219 308.164 23.9219C307.721 23.9219 307.352 24.1094 307.055 24.4844C306.763 24.8594 306.617 25.3698 306.617 26.0156C306.617 26.7188 306.771 27.2318 307.078 27.5547C307.391 27.8724 307.753 28.0312 308.164 28.0312C308.503 28.0312 308.776 27.9792 308.984 27.875C309.193 27.7656 309.393 27.6302 309.586 27.4688ZM322.977 26.0156C322.977 26.8073 322.805 27.513 322.461 28.1328C322.117 28.7526 321.602 29.2422 320.914 29.6016C320.232 29.9609 319.398 30.1406 318.414 30.1406C317.43 30.1406 316.594 29.9609 315.906 29.6016C315.224 29.2422 314.711 28.7526 314.367 28.1328C314.029 27.513 313.859 26.8073 313.859 26.0156C313.859 25.4167 313.953 24.8724 314.141 24.3828C314.333 23.8932 314.622 23.4609 315.008 23.0859C315.398 22.7057 315.878 22.4141 316.445 22.2109C317.013 22.0078 317.669 21.9062 318.414 21.9062C319.164 21.9062 319.826 22.0104 320.398 22.2188C320.977 22.4219 321.453 22.7083 321.828 23.0781C322.208 23.4479 322.495 23.8802 322.688 24.375C322.88 24.8698 322.977 25.4167 322.977 26.0156ZM320.016 26.0156C320.016 25.3854 319.878 24.8932 319.602 24.5391C319.331 24.1797 318.935 24 318.414 24C317.898 24 317.503 24.1797 317.227 24.5391C316.956 24.8932 316.82 25.3854 316.82 26.0156C316.82 26.6406 316.958 27.1354 317.234 27.5C317.51 27.8646 317.904 28.0469 318.414 28.0469C318.935 28.0469 319.331 27.8672 319.602 27.5078C319.878 27.1432 320.016 26.6458 320.016 26.0156ZM330.664 27.6797C330.664 28.4089 330.396 29.0026 329.859 29.4609C329.328 29.9141 328.536 30.1406 327.484 30.1406C326.896 30.1406 326.372 30.0885 325.914 29.9844C325.456 29.875 324.956 29.7214 324.414 29.5234V27.5234C324.888 27.7943 325.299 28 325.648 28.1406C325.997 28.2812 326.38 28.3516 326.797 28.3516C327.5 28.3516 327.852 28.1589 327.852 27.7734C327.852 27.6432 327.799 27.5286 327.695 27.4297C327.596 27.3255 327.419 27.2109 327.164 27.0859C326.914 26.9557 326.578 26.8021 326.156 26.625C325.635 26.3958 325.193 26.0885 324.828 25.7031C324.464 25.3177 324.281 24.8464 324.281 24.2891C324.281 23.8932 324.401 23.513 324.641 23.1484C324.885 22.7839 325.253 22.487 325.742 22.2578C326.232 22.0234 326.823 21.9062 327.516 21.9062C327.682 21.9062 327.893 21.9193 328.148 21.9453C328.409 21.9661 328.734 22.026 329.125 22.125C329.521 22.224 329.896 22.3646 330.25 22.5469V24.4922C330.083 24.3932 329.943 24.3099 329.828 24.2422C329.719 24.1745 329.57 24.099 329.383 24.0156C329.195 23.9323 328.974 23.8594 328.719 23.7969C328.469 23.7292 328.211 23.6953 327.945 23.6953C327.622 23.6953 327.401 23.7578 327.281 23.8828C327.161 24.0078 327.102 24.1328 327.102 24.2578C327.102 24.388 327.164 24.5104 327.289 24.625C327.414 24.7344 327.693 24.8724 328.125 25.0391C328.75 25.2786 329.25 25.526 329.625 25.7812C330 26.0312 330.266 26.3073 330.422 26.6094C330.583 26.9115 330.664 27.2682 330.664 27.6797Z" fill="white"/>
</svg>
